<svg xmlns="http://www.w3.org/2000/svg" xmlns:xlink="http://www.w3.org/1999/xlink" version="1.1" x="0px" y="0px" viewBox="0 0 100 100" enable-background="new 0 0 100 100" xml:space="preserve"><path d="M72,60.4c-4.8,0-9,2.4-11.6,6.1L38.2,54c0.2-1,0.4-2.1,0.4-3.2c0-1-0.1-2-0.3-3l22.3-12.6c2.6,3.6,6.8,5.9,11.5,5.9  c7.8,0,14.2-6.4,14.2-14.2S79.8,12.9,72,12.9s-14.2,6.4-14.2,14.2c0,1.3,0.2,2.6,0.5,3.8l-22,12.4c-2.5-3.9-6.9-6.6-11.9-6.6  c-7.8,0-14.1,6.3-14.1,14.1S16.7,65,24.4,65c4.9,0,9.3-2.6,11.8-6.4L58.3,71c-0.3,1.2-0.5,2.4-0.5,3.6c0,7.8,6.3,14.1,14.1,14.1  s14.1-6.3,14.1-14.1S79.7,60.4,72,60.4z M72,17.4c5.3,0,9.6,4.3,9.6,9.6c0,5.3-4.3,9.6-9.6,9.6c-5.3,0-9.6-4.3-9.6-9.6  C62.4,21.8,66.7,17.4,72,17.4z M24.4,60.4c-5.3,0-9.6-4.3-9.6-9.6s4.3-9.6,9.6-9.6s9.6,4.3,9.6,9.6S29.7,60.4,24.4,60.4z M72,84.1  c-5.3,0-9.6-4.3-9.6-9.6S66.7,65,72,65s9.6,4.3,9.6,9.6S77.3,84.1,72,84.1z"></path></svg>